<mxfile host="65bd71144e">
    <diagram id="j197bDDQUlHH8MY3ejUf" name="服务端流程">
        <mxGraphModel dx="704" dy="328" grid="1" gridSize="10" guides="1" tooltips="1" connect="1" arrows="1" fold="1" page="1" pageScale="1" pageWidth="827" pageHeight="1169" math="0" shadow="0">
            <root>
                <mxCell id="0"/>
                <mxCell id="1" parent="0"/>
                <mxCell id="27" value="&lt;h1&gt;主要流程&lt;/h1&gt;" style="text;html=1;strokeColor=none;fillColor=none;spacing=5;spacingTop=-20;whiteSpace=wrap;overflow=hidden;rounded=0;" parent="1" vertex="1">
                    <mxGeometry x="50" y="140" width="105" height="40" as="geometry"/>
                </mxCell>
                <mxCell id="28" value="" style="swimlane;startSize=0;" parent="1" vertex="1">
                    <mxGeometry x="160" y="140" width="610" height="200" as="geometry">
                        <mxRectangle x="160" y="140" width="50" height="40" as="alternateBounds"/>
                    </mxGeometry>
                </mxCell>
                <mxCell id="41" style="edgeStyle=none;html=1;exitX=1;exitY=0.5;exitDx=0;exitDy=0;" parent="28" source="33" target="40" edge="1">
                    <mxGeometry relative="1" as="geometry"/>
                </mxCell>
                <mxCell id="33" value="每个玩家的定居点和道路的初始化&lt;br&gt;(运行两轮, 玩家1到n然后玩家n到1)" style="rounded=1;whiteSpace=wrap;html=1;absoluteArcSize=1;arcSize=14;strokeWidth=2;" parent="28" vertex="1">
                    <mxGeometry x="200" y="50" width="100" height="100" as="geometry"/>
                </mxCell>
                <mxCell id="43" style="edgeStyle=none;html=1;exitX=0.5;exitY=0;exitDx=0;exitDy=0;entryX=0.5;entryY=0;entryDx=0;entryDy=0;" parent="28" source="35" target="40" edge="1">
                    <mxGeometry relative="1" as="geometry">
                        <Array as="points">
                            <mxPoint x="560" y="20"/>
                            <mxPoint x="410" y="20"/>
                        </Array>
                    </mxGeometry>
                </mxCell>
                <mxCell id="35" value="玩家n的回合" style="rounded=1;whiteSpace=wrap;html=1;absoluteArcSize=1;arcSize=14;strokeWidth=2;" parent="28" vertex="1">
                    <mxGeometry x="510" y="50" width="100" height="100" as="geometry"/>
                </mxCell>
                <mxCell id="39" style="edgeStyle=none;html=1;exitX=1;exitY=0.5;exitDx=0;exitDy=0;exitPerimeter=0;" parent="28" source="38" target="33" edge="1">
                    <mxGeometry relative="1" as="geometry"/>
                </mxCell>
                <mxCell id="38" value="开始" style="strokeWidth=2;html=1;shape=mxgraph.flowchart.start_2;whiteSpace=wrap;" parent="28" vertex="1">
                    <mxGeometry x="50" y="50" width="100" height="100" as="geometry"/>
                </mxCell>
                <mxCell id="42" style="edgeStyle=none;html=1;exitX=1;exitY=0.5;exitDx=0;exitDy=0;entryX=0;entryY=0.5;entryDx=0;entryDy=0;" parent="28" source="40" target="35" edge="1">
                    <mxGeometry relative="1" as="geometry"/>
                </mxCell>
                <mxCell id="40" value="玩家1的回合" style="rounded=1;whiteSpace=wrap;html=1;absoluteArcSize=1;arcSize=14;strokeWidth=2;" parent="28" vertex="1">
                    <mxGeometry x="360" y="50" width="100" height="100" as="geometry"/>
                </mxCell>
                <mxCell id="44" value="&lt;h1&gt;玩家初始化&lt;/h1&gt;" style="text;html=1;strokeColor=none;fillColor=none;spacing=5;spacingTop=-20;whiteSpace=wrap;overflow=hidden;rounded=0;" parent="1" vertex="1">
                    <mxGeometry x="20" y="380" width="135" height="40" as="geometry"/>
                </mxCell>
                <mxCell id="45" value="" style="swimlane;startSize=0;" parent="1" vertex="1">
                    <mxGeometry x="160" y="385" width="620" height="200" as="geometry">
                        <mxRectangle x="160" y="385" width="50" height="40" as="alternateBounds"/>
                    </mxGeometry>
                </mxCell>
                <mxCell id="52" style="edgeStyle=none;html=1;exitX=1;exitY=0.5;exitDx=0;exitDy=0;exitPerimeter=0;entryX=0;entryY=0.5;entryDx=0;entryDy=0;" parent="45" source="50" target="51" edge="1">
                    <mxGeometry relative="1" as="geometry"/>
                </mxCell>
                <mxCell id="50" value="开始" style="strokeWidth=2;html=1;shape=mxgraph.flowchart.start_2;whiteSpace=wrap;" parent="45" vertex="1">
                    <mxGeometry x="30" y="15" width="100" height="100" as="geometry"/>
                </mxCell>
                <mxCell id="54" style="edgeStyle=none;html=1;exitX=1;exitY=0.5;exitDx=0;exitDy=0;" parent="45" source="51" target="53" edge="1">
                    <mxGeometry relative="1" as="geometry"/>
                </mxCell>
                <mxCell id="51" value="通知玩家放置定居点" style="rounded=1;whiteSpace=wrap;html=1;absoluteArcSize=1;arcSize=14;strokeWidth=2;" parent="45" vertex="1">
                    <mxGeometry x="180" y="15" width="100" height="100" as="geometry"/>
                </mxCell>
                <mxCell id="64" style="edgeStyle=none;html=1;exitX=1;exitY=0.5;exitDx=0;exitDy=0;entryX=0;entryY=0.5;entryDx=0;entryDy=0;entryPerimeter=0;" parent="45" source="53" target="63" edge="1">
                    <mxGeometry relative="1" as="geometry"/>
                </mxCell>
                <mxCell id="53" value="通知玩家放置道路" style="rounded=1;whiteSpace=wrap;html=1;absoluteArcSize=1;arcSize=14;strokeWidth=2;" parent="45" vertex="1">
                    <mxGeometry x="340" y="15" width="100" height="100" as="geometry"/>
                </mxCell>
                <mxCell id="63" value="结束" style="strokeWidth=2;html=1;shape=mxgraph.flowchart.terminator;whiteSpace=wrap;" parent="45" vertex="1">
                    <mxGeometry x="490" y="35" width="100" height="60" as="geometry"/>
                </mxCell>
                <mxCell id="48" value="" style="endArrow=classic;startArrow=classic;html=1;entryX=0.5;entryY=1;entryDx=0;entryDy=0;exitX=0.5;exitY=0;exitDx=0;exitDy=0;" parent="1" source="45" target="33" edge="1">
                    <mxGeometry width="50" height="50" relative="1" as="geometry">
                        <mxPoint x="380" y="370" as="sourcePoint"/>
                        <mxPoint x="430" y="320" as="targetPoint"/>
                    </mxGeometry>
                </mxCell>
                <mxCell id="55" value="&lt;h1&gt;玩家回合&lt;/h1&gt;" style="text;html=1;strokeColor=none;fillColor=none;spacing=5;spacingTop=-20;whiteSpace=wrap;overflow=hidden;rounded=0;" parent="1" vertex="1">
                    <mxGeometry x="20" y="610" width="135" height="40" as="geometry"/>
                </mxCell>
                <mxCell id="56" value="" style="swimlane;startSize=0;" parent="1" vertex="1">
                    <mxGeometry x="160" y="610" width="660" height="510" as="geometry">
                        <mxRectangle x="160" y="610" width="50" height="40" as="alternateBounds"/>
                    </mxGeometry>
                </mxCell>
                <mxCell id="57" value="开始" style="strokeWidth=2;html=1;shape=mxgraph.flowchart.start_2;whiteSpace=wrap;" parent="56" vertex="1">
                    <mxGeometry x="20" y="50" width="100" height="100" as="geometry"/>
                </mxCell>
                <mxCell id="62" style="edgeStyle=none;html=1;entryX=0.5;entryY=0;entryDx=0;entryDy=0;entryPerimeter=0;exitX=0.5;exitY=1;exitDx=0;exitDy=0;exitPerimeter=0;" parent="56" source="59" target="61" edge="1">
                    <mxGeometry relative="1" as="geometry">
                        <Array as="points">
                            <mxPoint x="230" y="170"/>
                            <mxPoint x="70" y="170"/>
                        </Array>
                    </mxGeometry>
                </mxCell>
                <mxCell id="69" value="是" style="edgeLabel;html=1;align=center;verticalAlign=middle;resizable=0;points=[];" parent="62" vertex="1" connectable="0">
                    <mxGeometry x="-0.2083" relative="1" as="geometry">
                        <mxPoint as="offset"/>
                    </mxGeometry>
                </mxCell>
                <mxCell id="67" style="edgeStyle=none;html=1;exitX=1;exitY=0.5;exitDx=0;exitDy=0;exitPerimeter=0;entryX=0;entryY=0.5;entryDx=0;entryDy=0;entryPerimeter=0;" parent="56" source="59" target="66" edge="1">
                    <mxGeometry relative="1" as="geometry"/>
                </mxCell>
                <mxCell id="70" value="否" style="edgeLabel;html=1;align=center;verticalAlign=middle;resizable=0;points=[];" parent="67" vertex="1" connectable="0">
                    <mxGeometry x="-0.4725" y="-1" relative="1" as="geometry">
                        <mxPoint as="offset"/>
                    </mxGeometry>
                </mxCell>
                <mxCell id="59" value="玩家胜点&amp;gt;=10" style="strokeWidth=2;html=1;shape=mxgraph.flowchart.decision;whiteSpace=wrap;" parent="56" vertex="1">
                    <mxGeometry x="180" y="50" width="100" height="100" as="geometry"/>
                </mxCell>
                <mxCell id="61" value="游戏结束" style="strokeWidth=2;html=1;shape=mxgraph.flowchart.terminator;whiteSpace=wrap;" parent="56" vertex="1">
                    <mxGeometry x="20" y="190" width="100" height="60" as="geometry"/>
                </mxCell>
                <mxCell id="74" style="edgeStyle=none;html=1;entryX=0;entryY=0.5;entryDx=0;entryDy=0;" parent="56" source="66" target="82" edge="1">
                    <mxGeometry relative="1" as="geometry">
                        <mxPoint x="490" y="100" as="targetPoint"/>
                    </mxGeometry>
                </mxCell>
                <mxCell id="76" value="否" style="edgeLabel;html=1;align=center;verticalAlign=middle;resizable=0;points=[];" parent="74" vertex="1" connectable="0">
                    <mxGeometry x="-0.6099" relative="1" as="geometry">
                        <mxPoint as="offset"/>
                    </mxGeometry>
                </mxCell>
                <mxCell id="78" style="edgeStyle=none;html=1;entryX=0.5;entryY=0;entryDx=0;entryDy=0;" parent="56" source="66" target="77" edge="1">
                    <mxGeometry relative="1" as="geometry"/>
                </mxCell>
                <mxCell id="66" value="是否有骑士卡" style="strokeWidth=2;html=1;shape=mxgraph.flowchart.decision;whiteSpace=wrap;" parent="56" vertex="1">
                    <mxGeometry x="330" y="50" width="100" height="100" as="geometry"/>
                </mxCell>
                <mxCell id="79" style="edgeStyle=none;html=1;entryX=0.5;entryY=1;entryDx=0;entryDy=0;" parent="56" source="77" target="82" edge="1">
                    <mxGeometry relative="1" as="geometry">
                        <mxPoint x="510" y="100" as="targetPoint"/>
                        <Array as="points">
                            <mxPoint x="560" y="240"/>
                        </Array>
                    </mxGeometry>
                </mxCell>
                <mxCell id="77" value="通知玩家可以打出骑士卡" style="rounded=1;whiteSpace=wrap;html=1;absoluteArcSize=1;arcSize=14;strokeWidth=2;" parent="56" vertex="1">
                    <mxGeometry x="330" y="190" width="100" height="100" as="geometry"/>
                </mxCell>
                <mxCell id="85" style="edgeStyle=none;html=1;exitX=1;exitY=0.5;exitDx=0;exitDy=0;entryX=1;entryY=0.5;entryDx=0;entryDy=0;entryPerimeter=0;" parent="56" source="82" target="84" edge="1">
                    <mxGeometry relative="1" as="geometry">
                        <Array as="points">
                            <mxPoint x="640" y="100"/>
                            <mxPoint x="640" y="240"/>
                            <mxPoint x="640" y="380"/>
                        </Array>
                    </mxGeometry>
                </mxCell>
                <mxCell id="82" value="通知玩家自由行动&lt;br&gt;（交易， 建造）" style="rounded=1;whiteSpace=wrap;html=1;absoluteArcSize=1;arcSize=14;strokeWidth=2;" parent="56" vertex="1">
                    <mxGeometry x="510" y="50" width="100" height="100" as="geometry"/>
                </mxCell>
                <mxCell id="86" style="edgeStyle=none;html=1;exitX=0;exitY=0.5;exitDx=0;exitDy=0;exitPerimeter=0;entryX=0.5;entryY=1;entryDx=0;entryDy=0;entryPerimeter=0;" parent="56" source="84" target="61" edge="1">
                    <mxGeometry relative="1" as="geometry">
                        <Array as="points">
                            <mxPoint x="70" y="380"/>
                        </Array>
                    </mxGeometry>
                </mxCell>
                <mxCell id="87" value="是" style="edgeLabel;html=1;align=center;verticalAlign=middle;resizable=0;points=[];" parent="86" vertex="1" connectable="0">
                    <mxGeometry x="-0.1065" y="-2" relative="1" as="geometry">
                        <mxPoint x="-1" as="offset"/>
                    </mxGeometry>
                </mxCell>
                <mxCell id="89" style="edgeStyle=none;html=1;entryX=1;entryY=0.5;entryDx=0;entryDy=0;entryPerimeter=0;" parent="56" source="84" target="88" edge="1">
                    <mxGeometry relative="1" as="geometry">
                        <Array as="points">
                            <mxPoint x="560" y="460"/>
                        </Array>
                    </mxGeometry>
                </mxCell>
                <mxCell id="84" value="玩家胜点&amp;gt;=10" style="strokeWidth=2;html=1;shape=mxgraph.flowchart.decision;whiteSpace=wrap;" parent="56" vertex="1">
                    <mxGeometry x="510" y="330" width="100" height="100" as="geometry"/>
                </mxCell>
                <mxCell id="88" value="玩家回合结束" style="strokeWidth=2;html=1;shape=mxgraph.flowchart.terminator;whiteSpace=wrap;" parent="56" vertex="1">
                    <mxGeometry x="280" y="430" width="100" height="60" as="geometry"/>
                </mxCell>
                <mxCell id="65" style="edgeStyle=none;html=1;exitX=0.5;exitY=1;exitDx=0;exitDy=0;entryX=0.5;entryY=0;entryDx=0;entryDy=0;" parent="1" source="40" target="56" edge="1">
                    <mxGeometry relative="1" as="geometry"/>
                </mxCell>
                <mxCell id="60" style="edgeStyle=none;html=1;" parent="1" source="57" target="45" edge="1">
                    <mxGeometry relative="1" as="geometry"/>
                </mxCell>
            </root>
        </mxGraphModel>
    </diagram>
    <diagram id="2wfHwG8VKm7meQdzHb-h" name="服务端状态机">
        <mxGraphModel dx="704" dy="328" grid="1" gridSize="10" guides="1" tooltips="1" connect="1" arrows="1" fold="1" page="1" pageScale="1" pageWidth="827" pageHeight="1169" math="0" shadow="0">
            <root>
                <mxCell id="7Dl9o-xgZ-vxcTdd5YCx-0"/>
                <mxCell id="7Dl9o-xgZ-vxcTdd5YCx-1" parent="7Dl9o-xgZ-vxcTdd5YCx-0"/>
                <mxCell id="wpeNkzk40neIxbd5Myv8-13" style="edgeStyle=none;html=1;entryX=0.5;entryY=0;entryDx=0;entryDy=0;fontFamily=Helvetica;fontSize=12;fontColor=default;exitX=0.5;exitY=1;exitDx=0;exitDy=0;" parent="7Dl9o-xgZ-vxcTdd5YCx-1" source="tfVXoMXpDQg7NK5IXGp2-5" target="wpeNkzk40neIxbd5Myv8-8" edge="1">
                    <mxGeometry relative="1" as="geometry">
                        <mxPoint x="150" y="210" as="sourcePoint"/>
                    </mxGeometry>
                </mxCell>
                <mxCell id="wpeNkzk40neIxbd5Myv8-10" style="edgeStyle=none;html=1;exitX=1;exitY=0.5;exitDx=0;exitDy=0;fontFamily=Helvetica;fontSize=12;fontColor=default;" parent="7Dl9o-xgZ-vxcTdd5YCx-1" source="wpeNkzk40neIxbd5Myv8-8" edge="1">
                    <mxGeometry relative="1" as="geometry">
                        <mxPoint x="360" y="305" as="targetPoint"/>
                    </mxGeometry>
                </mxCell>
                <mxCell id="tfVXoMXpDQg7NK5IXGp2-0" value="所有玩家就绪" style="edgeLabel;html=1;align=center;verticalAlign=middle;resizable=0;points=[];fontSize=12;fontFamily=Helvetica;fontColor=default;" parent="wpeNkzk40neIxbd5Myv8-10" vertex="1" connectable="0">
                    <mxGeometry x="-0.3764" y="-1" relative="1" as="geometry">
                        <mxPoint x="16" y="-1" as="offset"/>
                    </mxGeometry>
                </mxCell>
                <mxCell id="wpeNkzk40neIxbd5Myv8-8" value="初始状态" style="html=1;align=center;verticalAlign=top;rounded=1;absoluteArcSize=1;arcSize=10;dashed=0;fontFamily=Helvetica;fontSize=12;" parent="7Dl9o-xgZ-vxcTdd5YCx-1" vertex="1">
                    <mxGeometry x="80" y="285" width="140" height="40" as="geometry"/>
                </mxCell>
                <mxCell id="tfVXoMXpDQg7NK5IXGp2-16" value="" style="edgeStyle=none;html=1;fontFamily=Helvetica;fontSize=12;fontColor=default;entryX=0.5;entryY=0;entryDx=0;entryDy=0;exitX=0.5;exitY=1;exitDx=0;exitDy=0;" parent="7Dl9o-xgZ-vxcTdd5YCx-1" source="wpeNkzk40neIxbd5Myv8-12" target="tfVXoMXpDQg7NK5IXGp2-15" edge="1">
                    <mxGeometry relative="1" as="geometry"/>
                </mxCell>
                <mxCell id="tfVXoMXpDQg7NK5IXGp2-18" value="所有玩家放置完成" style="edgeLabel;html=1;align=center;verticalAlign=middle;resizable=0;points=[];fontSize=12;fontFamily=Helvetica;fontColor=default;" parent="tfVXoMXpDQg7NK5IXGp2-16" vertex="1" connectable="0">
                    <mxGeometry x="-0.4231" relative="1" as="geometry">
                        <mxPoint x="-14" y="8" as="offset"/>
                    </mxGeometry>
                </mxCell>
                <mxCell id="wpeNkzk40neIxbd5Myv8-12" value="设置初始位置" style="shape=umlState;rounded=1;verticalAlign=top;spacingTop=5;umlStateSymbol=collapseState;absoluteArcSize=1;arcSize=10;fontFamily=Helvetica;fontSize=12;" parent="7Dl9o-xgZ-vxcTdd5YCx-1" vertex="1">
                    <mxGeometry x="360" y="275" width="330" height="255" as="geometry"/>
                </mxCell>
                <mxCell id="tfVXoMXpDQg7NK5IXGp2-3" style="edgeStyle=none;html=1;fontFamily=Helvetica;fontSize=12;fontColor=default;" parent="7Dl9o-xgZ-vxcTdd5YCx-1" source="tfVXoMXpDQg7NK5IXGp2-1" target="tfVXoMXpDQg7NK5IXGp2-2" edge="1">
                    <mxGeometry relative="1" as="geometry"/>
                </mxCell>
                <mxCell id="tfVXoMXpDQg7NK5IXGp2-1" value="玩家1放置" style="html=1;align=center;verticalAlign=top;rounded=1;absoluteArcSize=1;arcSize=10;dashed=0;fontFamily=Helvetica;fontSize=12;" parent="7Dl9o-xgZ-vxcTdd5YCx-1" vertex="1">
                    <mxGeometry x="370" y="340" width="140" height="40" as="geometry"/>
                </mxCell>
                <mxCell id="tfVXoMXpDQg7NK5IXGp2-7" value="" style="edgeStyle=none;html=1;fontFamily=Helvetica;fontSize=12;fontColor=default;" parent="7Dl9o-xgZ-vxcTdd5YCx-1" source="tfVXoMXpDQg7NK5IXGp2-2" target="tfVXoMXpDQg7NK5IXGp2-6" edge="1">
                    <mxGeometry relative="1" as="geometry"/>
                </mxCell>
                <mxCell id="tfVXoMXpDQg7NK5IXGp2-14" value="玩家放置完毕" style="edgeLabel;html=1;align=center;verticalAlign=middle;resizable=0;points=[];fontSize=12;fontFamily=Helvetica;fontColor=default;" parent="tfVXoMXpDQg7NK5IXGp2-7" vertex="1" connectable="0">
                    <mxGeometry x="-0.5093" y="2" relative="1" as="geometry">
                        <mxPoint y="1" as="offset"/>
                    </mxGeometry>
                </mxCell>
                <mxCell id="tfVXoMXpDQg7NK5IXGp2-2" value="玩家n放置" style="html=1;align=center;verticalAlign=top;rounded=1;absoluteArcSize=1;arcSize=10;dashed=0;fontFamily=Helvetica;fontSize=12;" parent="7Dl9o-xgZ-vxcTdd5YCx-1" vertex="1">
                    <mxGeometry x="540" y="340" width="140" height="40" as="geometry"/>
                </mxCell>
                <mxCell id="tfVXoMXpDQg7NK5IXGp2-5" value="" style="ellipse;fontFamily=Helvetica;fontSize=12;" parent="7Dl9o-xgZ-vxcTdd5YCx-1" vertex="1">
                    <mxGeometry x="135" y="195" width="30" height="30" as="geometry"/>
                </mxCell>
                <mxCell id="tfVXoMXpDQg7NK5IXGp2-9" value="" style="edgeStyle=none;html=1;fontFamily=Helvetica;fontSize=12;fontColor=default;" parent="7Dl9o-xgZ-vxcTdd5YCx-1" source="tfVXoMXpDQg7NK5IXGp2-6" target="tfVXoMXpDQg7NK5IXGp2-8" edge="1">
                    <mxGeometry relative="1" as="geometry"/>
                </mxCell>
                <mxCell id="tfVXoMXpDQg7NK5IXGp2-6" value="玩家n放置" style="html=1;align=center;verticalAlign=top;rounded=1;absoluteArcSize=1;arcSize=10;dashed=0;fontFamily=Helvetica;fontSize=12;" parent="7Dl9o-xgZ-vxcTdd5YCx-1" vertex="1">
                    <mxGeometry x="540" y="430" width="140" height="40" as="geometry"/>
                </mxCell>
                <mxCell id="tfVXoMXpDQg7NK5IXGp2-8" value="玩家1放置" style="html=1;align=center;verticalAlign=top;rounded=1;absoluteArcSize=1;arcSize=10;dashed=0;fontFamily=Helvetica;fontSize=12;" parent="7Dl9o-xgZ-vxcTdd5YCx-1" vertex="1">
                    <mxGeometry x="370" y="430" width="140" height="40" as="geometry"/>
                </mxCell>
                <mxCell id="tfVXoMXpDQg7NK5IXGp2-11" value="" style="edgeStyle=none;html=1;fontFamily=Helvetica;fontSize=12;fontColor=default;" parent="7Dl9o-xgZ-vxcTdd5YCx-1" source="tfVXoMXpDQg7NK5IXGp2-10" edge="1">
                    <mxGeometry relative="1" as="geometry">
                        <mxPoint x="440" y="340" as="targetPoint"/>
                    </mxGeometry>
                </mxCell>
                <mxCell id="tfVXoMXpDQg7NK5IXGp2-10" value="" style="ellipse;fontFamily=Helvetica;fontSize=12;" parent="7Dl9o-xgZ-vxcTdd5YCx-1" vertex="1">
                    <mxGeometry x="425" y="285" width="30" height="30" as="geometry"/>
                </mxCell>
                <mxCell id="tfVXoMXpDQg7NK5IXGp2-15" value="" style="shape=umlState;rounded=1;verticalAlign=top;spacingTop=5;umlStateSymbol=collapseState;absoluteArcSize=1;arcSize=10;fontFamily=Helvetica;fontSize=12;" parent="7Dl9o-xgZ-vxcTdd5YCx-1" vertex="1">
                    <mxGeometry x="129.28" y="690" width="650" height="360" as="geometry"/>
                </mxCell>
                <mxCell id="tfVXoMXpDQg7NK5IXGp2-19" value="游戏结束" style="html=1;align=center;verticalAlign=top;rounded=1;absoluteArcSize=1;arcSize=10;dashed=0;fontFamily=Helvetica;fontSize=12;" parent="7Dl9o-xgZ-vxcTdd5YCx-1" vertex="1">
                    <mxGeometry x="40" y="510" width="140" height="40" as="geometry"/>
                </mxCell>
                <mxCell id="tfVXoMXpDQg7NK5IXGp2-21" value="" style="edgeStyle=none;html=1;fontFamily=Helvetica;fontSize=12;fontColor=default;" parent="7Dl9o-xgZ-vxcTdd5YCx-1" source="tfVXoMXpDQg7NK5IXGp2-20" target="tfVXoMXpDQg7NK5IXGp2-19" edge="1">
                    <mxGeometry relative="1" as="geometry"/>
                </mxCell>
                <mxCell id="tfVXoMXpDQg7NK5IXGp2-20" value="" style="ellipse;html=1;shape=endState;fontFamily=Helvetica;fontSize=12;" parent="7Dl9o-xgZ-vxcTdd5YCx-1" vertex="1">
                    <mxGeometry x="95" y="430" width="30" height="30" as="geometry"/>
                </mxCell>
                <mxCell id="tfVXoMXpDQg7NK5IXGp2-44" style="edgeStyle=none;html=1;exitX=1;exitY=0.3;exitDx=0;exitDy=0;entryX=0.009;entryY=0.113;entryDx=0;entryDy=0;fontFamily=Helvetica;fontSize=12;fontColor=default;entryPerimeter=0;" parent="7Dl9o-xgZ-vxcTdd5YCx-1" source="tfVXoMXpDQg7NK5IXGp2-22" target="tfVXoMXpDQg7NK5IXGp2-43" edge="1">
                    <mxGeometry relative="1" as="geometry"/>
                </mxCell>
                <mxCell id="tfVXoMXpDQg7NK5IXGp2-49" value="玩家回合结束" style="edgeLabel;html=1;align=center;verticalAlign=middle;resizable=0;points=[];fontSize=12;fontFamily=Helvetica;fontColor=default;" parent="tfVXoMXpDQg7NK5IXGp2-44" vertex="1" connectable="0">
                    <mxGeometry x="-0.3099" y="1" relative="1" as="geometry">
                        <mxPoint x="25" y="-1" as="offset"/>
                    </mxGeometry>
                </mxCell>
                <mxCell id="tfVXoMXpDQg7NK5IXGp2-22" value="玩家1回合" style="shape=umlState;rounded=1;verticalAlign=top;spacingTop=5;umlStateSymbol=collapseState;absoluteArcSize=1;arcSize=10;fontFamily=Helvetica;fontSize=12;" parent="7Dl9o-xgZ-vxcTdd5YCx-1" vertex="1">
                    <mxGeometry x="149.28" y="760" width="330" height="255" as="geometry"/>
                </mxCell>
                <mxCell id="tfVXoMXpDQg7NK5IXGp2-24" value="" style="edgeStyle=none;html=1;fontFamily=Helvetica;fontSize=12;fontColor=default;entryX=0.5;entryY=0;entryDx=0;entryDy=0;" parent="7Dl9o-xgZ-vxcTdd5YCx-1" source="tfVXoMXpDQg7NK5IXGp2-23" target="tfVXoMXpDQg7NK5IXGp2-22" edge="1">
                    <mxGeometry relative="1" as="geometry"/>
                </mxCell>
                <mxCell id="tfVXoMXpDQg7NK5IXGp2-23" value="" style="ellipse;fontFamily=Helvetica;fontSize=12;" parent="7Dl9o-xgZ-vxcTdd5YCx-1" vertex="1">
                    <mxGeometry x="299.28" y="700" width="30" height="30" as="geometry"/>
                </mxCell>
                <mxCell id="tfVXoMXpDQg7NK5IXGp2-27" style="edgeStyle=none;html=1;entryX=1;entryY=0.5;entryDx=0;entryDy=0;fontFamily=Helvetica;fontSize=12;fontColor=default;" parent="7Dl9o-xgZ-vxcTdd5YCx-1" source="tfVXoMXpDQg7NK5IXGp2-26" target="tfVXoMXpDQg7NK5IXGp2-19" edge="1">
                    <mxGeometry relative="1" as="geometry"/>
                </mxCell>
                <mxCell id="tfVXoMXpDQg7NK5IXGp2-28" value="大于9点" style="edgeLabel;html=1;align=center;verticalAlign=middle;resizable=0;points=[];fontSize=12;fontFamily=Helvetica;fontColor=default;" parent="tfVXoMXpDQg7NK5IXGp2-27" vertex="1" connectable="0">
                    <mxGeometry x="0.2586" y="-5" relative="1" as="geometry">
                        <mxPoint x="10" y="-5" as="offset"/>
                    </mxGeometry>
                </mxCell>
                <mxCell id="tfVXoMXpDQg7NK5IXGp2-30" value="" style="edgeStyle=none;html=1;fontFamily=Helvetica;fontSize=12;fontColor=default;" parent="7Dl9o-xgZ-vxcTdd5YCx-1" source="tfVXoMXpDQg7NK5IXGp2-26" target="tfVXoMXpDQg7NK5IXGp2-29" edge="1">
                    <mxGeometry relative="1" as="geometry"/>
                </mxCell>
                <mxCell id="tfVXoMXpDQg7NK5IXGp2-26" value="检查点数" style="html=1;align=center;verticalAlign=top;rounded=1;absoluteArcSize=1;arcSize=10;dashed=0;fontFamily=Helvetica;fontSize=12;" parent="7Dl9o-xgZ-vxcTdd5YCx-1" vertex="1">
                    <mxGeometry x="169.28" y="800" width="70" height="40" as="geometry"/>
                </mxCell>
                <mxCell id="tfVXoMXpDQg7NK5IXGp2-33" value="" style="edgeStyle=none;html=1;fontFamily=Helvetica;fontSize=12;fontColor=default;" parent="7Dl9o-xgZ-vxcTdd5YCx-1" source="tfVXoMXpDQg7NK5IXGp2-29" target="tfVXoMXpDQg7NK5IXGp2-32" edge="1">
                    <mxGeometry relative="1" as="geometry"/>
                </mxCell>
                <mxCell id="tfVXoMXpDQg7NK5IXGp2-29" value="特殊出卡" style="html=1;align=center;verticalAlign=top;rounded=1;absoluteArcSize=1;arcSize=10;dashed=0;fontFamily=Helvetica;fontSize=12;" parent="7Dl9o-xgZ-vxcTdd5YCx-1" vertex="1">
                    <mxGeometry x="309.28" y="800" width="70" height="40" as="geometry"/>
                </mxCell>
                <mxCell id="tfVXoMXpDQg7NK5IXGp2-35" value="" style="edgeStyle=none;html=1;fontFamily=Helvetica;fontSize=12;fontColor=default;" parent="7Dl9o-xgZ-vxcTdd5YCx-1" source="tfVXoMXpDQg7NK5IXGp2-32" target="tfVXoMXpDQg7NK5IXGp2-34" edge="1">
                    <mxGeometry relative="1" as="geometry"/>
                </mxCell>
                <mxCell id="tfVXoMXpDQg7NK5IXGp2-32" value="投掷骰子" style="html=1;align=center;verticalAlign=top;rounded=1;absoluteArcSize=1;arcSize=10;dashed=0;fontFamily=Helvetica;fontSize=12;" parent="7Dl9o-xgZ-vxcTdd5YCx-1" vertex="1">
                    <mxGeometry x="309.28" y="880" width="70" height="40" as="geometry"/>
                </mxCell>
                <mxCell id="tfVXoMXpDQg7NK5IXGp2-37" value="" style="edgeStyle=none;html=1;fontFamily=Helvetica;fontSize=12;fontColor=default;" parent="7Dl9o-xgZ-vxcTdd5YCx-1" source="tfVXoMXpDQg7NK5IXGp2-34" target="tfVXoMXpDQg7NK5IXGp2-36" edge="1">
                    <mxGeometry relative="1" as="geometry"/>
                </mxCell>
                <mxCell id="tfVXoMXpDQg7NK5IXGp2-46" style="edgeStyle=none;html=1;exitX=0;exitY=0.5;exitDx=0;exitDy=0;fontFamily=Helvetica;fontSize=12;fontColor=default;entryX=1;entryY=0.5;entryDx=0;entryDy=0;" parent="7Dl9o-xgZ-vxcTdd5YCx-1" source="tfVXoMXpDQg7NK5IXGp2-34" target="tfVXoMXpDQg7NK5IXGp2-19" edge="1">
                    <mxGeometry relative="1" as="geometry">
                        <mxPoint x="270" y="860" as="targetPoint"/>
                    </mxGeometry>
                </mxCell>
                <mxCell id="tfVXoMXpDQg7NK5IXGp2-34" value="自由阶段" style="html=1;align=center;verticalAlign=top;rounded=1;absoluteArcSize=1;arcSize=10;dashed=0;fontFamily=Helvetica;fontSize=12;" parent="7Dl9o-xgZ-vxcTdd5YCx-1" vertex="1">
                    <mxGeometry x="169.28" y="880" width="70" height="40" as="geometry"/>
                </mxCell>
                <mxCell id="tfVXoMXpDQg7NK5IXGp2-36" value="结束" style="html=1;align=center;verticalAlign=top;rounded=1;absoluteArcSize=1;arcSize=10;dashed=0;fontFamily=Helvetica;fontSize=12;" parent="7Dl9o-xgZ-vxcTdd5YCx-1" vertex="1">
                    <mxGeometry x="169.28" y="960" width="70" height="40" as="geometry"/>
                </mxCell>
                <mxCell id="tfVXoMXpDQg7NK5IXGp2-40" value="" style="edgeStyle=none;html=1;fontFamily=Helvetica;fontSize=12;fontColor=default;" parent="7Dl9o-xgZ-vxcTdd5YCx-1" source="tfVXoMXpDQg7NK5IXGp2-38" target="tfVXoMXpDQg7NK5IXGp2-36" edge="1">
                    <mxGeometry relative="1" as="geometry"/>
                </mxCell>
                <mxCell id="tfVXoMXpDQg7NK5IXGp2-38" value="" style="ellipse;html=1;shape=endState;fontFamily=Helvetica;fontSize=12;" parent="7Dl9o-xgZ-vxcTdd5YCx-1" vertex="1">
                    <mxGeometry x="309.28" y="965" width="30" height="30" as="geometry"/>
                </mxCell>
                <mxCell id="tfVXoMXpDQg7NK5IXGp2-42" value="" style="edgeStyle=none;html=1;fontFamily=Helvetica;fontSize=12;fontColor=default;" parent="7Dl9o-xgZ-vxcTdd5YCx-1" source="tfVXoMXpDQg7NK5IXGp2-41" target="tfVXoMXpDQg7NK5IXGp2-8" edge="1">
                    <mxGeometry relative="1" as="geometry"/>
                </mxCell>
                <mxCell id="tfVXoMXpDQg7NK5IXGp2-41" value="" style="ellipse;html=1;shape=endState;fontFamily=Helvetica;fontSize=12;" parent="7Dl9o-xgZ-vxcTdd5YCx-1" vertex="1">
                    <mxGeometry x="425" y="490" width="30" height="30" as="geometry"/>
                </mxCell>
                <mxCell id="tfVXoMXpDQg7NK5IXGp2-45" style="edgeStyle=none;html=1;exitX=0.006;exitY=0.964;exitDx=0;exitDy=0;entryX=1;entryY=0.5;entryDx=0;entryDy=0;fontFamily=Helvetica;fontSize=12;fontColor=default;exitPerimeter=0;" parent="7Dl9o-xgZ-vxcTdd5YCx-1" source="tfVXoMXpDQg7NK5IXGp2-43" target="tfVXoMXpDQg7NK5IXGp2-22" edge="1">
                    <mxGeometry relative="1" as="geometry"/>
                </mxCell>
                <mxCell id="tfVXoMXpDQg7NK5IXGp2-43" value="玩家n回合" style="shape=umlState;rounded=1;verticalAlign=top;spacingTop=5;umlStateSymbol=collapseState;absoluteArcSize=1;arcSize=10;fontFamily=Helvetica;fontSize=12;" parent="7Dl9o-xgZ-vxcTdd5YCx-1" vertex="1">
                    <mxGeometry x="619.28" y="830" width="140" height="60" as="geometry"/>
                </mxCell>
                <mxCell id="tfVXoMXpDQg7NK5IXGp2-47" value="大于9点" style="edgeLabel;html=1;align=center;verticalAlign=middle;resizable=0;points=[];fontSize=12;fontFamily=Helvetica;fontColor=default;" parent="7Dl9o-xgZ-vxcTdd5YCx-1" vertex="1" connectable="0">
                    <mxGeometry x="100.72185414221556" y="919.9974142496135" as="geometry"/>
                </mxCell>
                <mxCell id="tfVXoMXpDQg7NK5IXGp2-50" value="玩家回合结束" style="edgeLabel;html=1;align=center;verticalAlign=middle;resizable=0;points=[];fontSize=12;fontFamily=Helvetica;fontColor=default;" parent="7Dl9o-xgZ-vxcTdd5YCx-1" vertex="1" connectable="0">
                    <mxGeometry x="549.2790193224592" y="887.5024534272947" as="geometry"/>
                </mxCell>
            </root>
        </mxGraphModel>
    </diagram>
</mxfile>